HIERARCHY
ROOT Hips
{
	OFFSET 0.000000 0.000000 0.000000
	CHANNELS 6 Xposition Yposition Zposition Yrotation Xrotation Zrotation
	JOINT Chest
	{
		OFFSET 0.000000 -0.009281 11.569106
		CHANNELS 3 Yrotation Xrotation Zrotation
		JOINT Chest2
		{
			OFFSET -0.000000 0.016865 9.269641
			CHANNELS 3 Yrotation Xrotation Zrotation
			JOINT Chest3
			{
				OFFSET -0.000000 0.000001 8.374491
				CHANNELS 3 Yrotation Xrotation Zrotation
				JOINT Chest4
				{
					OFFSET -0.000000 0.000001 8.374493
					CHANNELS 3 Yrotation Xrotation Zrotation
					JOINT Neck
					{
						OFFSET -0.000000 0.000002 12.152554
						CHANNELS 3 Yrotation Xrotation Zrotation
						JOINT Head
						{
							OFFSET -0.000000 0.040101 7.802319
							CHANNELS 3 Yrotation Xrotation Zrotation
							End Site
							{
								OFFSET -0.000000 0.020947 14.853096
							}
						}
					}
					JOINT RightCollar
					{
						OFFSET 2.894404 0.000001 6.791374
						CHANNELS 3 Yrotation Xrotation Zrotation
						JOINT RightShoulder
						{
							OFFSET 13.574684 0.000001 0.000000
							CHANNELS 3 Yrotation Xrotation Zrotation
							JOINT RightElbow
							{
								OFFSET 23.923903 0.000002 0.000000
								CHANNELS 3 Yrotation Xrotation Zrotation
								JOINT RightWrist
								{
									OFFSET 19.846718 0.012767 0.000000
									CHANNELS 3 Yrotation Xrotation Zrotation
									End Site
									{
										OFFSET 14.973145 0.000001 0.000000
									}
								}
							}
						}
					}
					JOINT LeftCollar
					{
						OFFSET -2.894404 0.000001 6.791374
						CHANNELS 3 Yrotation Xrotation Zrotation
						JOINT LeftShoulder
						{
							OFFSET -13.574684 -0.000001 0.000000
							CHANNELS 3 Yrotation Xrotation Zrotation
							JOINT LeftElbow
							{
								OFFSET -23.923903 -0.000002 0.000000
								CHANNELS 3 Yrotation Xrotation Zrotation
								JOINT LeftWrist
								{
									OFFSET -19.846718 0.012763 0.000000
									CHANNELS 3 Yrotation Xrotation Zrotation
									End Site
									{
										OFFSET -14.973145 -0.000001 0.000000
									}
								}
							}
						}
					}
				}
			}
		}
	}
	JOINT RightHip
	{
		OFFSET 9.469263 0.004643 0.045487
		CHANNELS 3 Yrotation Xrotation Zrotation
		JOINT RightKnee
		{
			OFFSET 0.000000 0.002661 -40.478676
			CHANNELS 3 Yrotation Xrotation Zrotation
			JOINT RightAnkle
			{
				OFFSET 0.000000 0.049106 -35.224068
				CHANNELS 3 Yrotation Xrotation Zrotation
				JOINT RightToe
				{
					OFFSET -0.000001 12.539529 -6.151390
					CHANNELS 3 Yrotation Xrotation Zrotation
					End Site
					{
						OFFSET -0.000001 5.044994 -1.291870
					}
				}
			}
		}
	}
	JOINT LeftHip
	{
		OFFSET -9.469263 0.004641 0.045487
		CHANNELS 3 Yrotation Xrotation Zrotation
		JOINT LeftKnee
		{
			OFFSET 0.000000 0.002661 -40.478676
			CHANNELS 3 Yrotation Xrotation Zrotation
			JOINT LeftAnkle
			{
				OFFSET 0.000000 0.049106 -35.224068
				CHANNELS 3 Yrotation Xrotation Zrotation
				JOINT LeftToe
				{
					OFFSET -0.000001 12.539529 -6.151390
					CHANNELS 3 Yrotation Xrotation Zrotation
					End Site
					{
						OFFSET -0.000001 5.044994 -1.291870
					}
				}
			}
		}
	}
}
MOTION
Frames: 16
Frame Time: 0.016667
-101.107643 134.958099 81.210709 6.712717 -3.861502 130.512443 0.485238 -2.583429 1.288015 0.508191 -1.210557 0.576367 0.508191 -1.210557 0.576366 0.382272 -0.907440 0.433264 -4.869183 -18.295352 3.128119 -7.916994 2.244989 4.142040 11.452725 -3.397402 -1.663250 71.317851 -6.353795 32.772825 -0.802512 -23.739381 35.581164 -31.158910 10.556805 31.611410 -6.073598 -0.062561 5.149426 -75.016296 21.529391 21.192233 15.908207 18.263405 16.378823 12.144772 -3.182821 -8.441125 -3.322588 -13.980034 -5.514796 3.349135 -32.149345 3.257634 9.582440 -4.293859 4.357110 -13.596793 41.126492 -3.867828 -6.919517 9.461642 4.619225 -3.640611 -4.474813 8.561453 7.180738 -14.352632 1.808067 -0.406225 3.010568 0.245516 
-102.314987 132.923340 81.049767 5.996613 -5.682178 130.061965 -0.417507 -3.032445 2.518264 0.442055 -1.169909 0.598786 0.442055 -1.169909 0.598783 0.332676 -0.877000 0.449922 -5.493899 -18.435360 3.400841 -8.974597 1.989628 4.443765 11.071115 -3.960121 -1.425045 73.773242 -5.771871 31.294267 1.091402 -22.263963 37.065230 -31.819836 14.097367 35.653605 -5.849178 0.084598 5.947384 -73.655455 22.049787 21.293598 15.709213 17.985379 16.037631 12.230021 -2.649951 -7.964437 -6.668749 -12.253002 -4.405298 3.984324 -37.876701 1.502959 11.680435 -9.141258 5.052441 -16.850401 48.916609 -5.718172 -9.506651 7.322680 7.204298 -3.213851 -4.159716 5.940874 7.947879 -14.101675 2.803389 -0.894188 3.344524 0.038494 
-103.174835 131.169876 80.819138 4.773870 -6.647039 130.636548 -0.930777 -2.692839 2.621894 0.372071 -1.095137 0.648882 0.372070 -1.095138 0.648884 0.280208 -0.820960 0.487314 -6.105982 -18.565786 3.706877 -9.997585 1.753834 4.812095 10.827967 -4.341700 -1.115967 75.542596 -5.334464 29.860750 3.501448 -20.841861 37.841027 -32.570239 17.248736 38.900513 -5.632747 0.074648 6.750515 -72.658330 22.352441 21.050453 15.254345 18.049794 15.452917 12.154477 -1.689050 -7.929879 -9.110506 -9.226389 -4.886390 3.437221 -43.993839 0.826348 13.867531 -13.012192 6.653382 -21.499569 54.738338 -9.082229 -11.893723 6.079103 7.046083 -3.034342 -4.139465 6.058562 8.775952 -12.168975 3.054714 -1.083596 2.551551 -0.280518 
-104.216934 129.386627 80.600296 4.178306 -7.032244 131.304431 -0.607296 -2.643659 2.496169 0.253081 -1.008740 0.713529 0.253080 -1.008741 0.713535 0.190984 -0.756260 0.535552 -6.665280 -18.655924 4.023130 -10.920206 1.594605 5.215518 10.743956 -4.163856 -0.977966 76.757283 -4.816806 28.406647 6.398695 -19.980258 37.839231 -33.658721 20.046499 41.186410 -5.567544 -0.098551 7.166908 -71.824261 22.800614 20.397808 14.640610 18.483190 14.729918 11.742920 -0.466776 -8.294710 -10.190640 -6.046912 -5.577381 1.944853 -49.831349 1.637091 16.277980 -17.040537 8.597348 -28.601757 57.401361 -15.099093 -13.058599 5.000005 5.626631 -3.530918 -4.619575 6.964462 9.569197 -9.387526 3.834061 -1.114308 1.188017 -0.685254 
-105.110672 127.735085 80.430298 3.355083 -7.293274 132.543933 -0.381257 -2.464513 1.832747 0.084667 -0.923432 0.775249 0.084667 -0.923431 0.775249 0.064670 -0.692467 0.581548 -7.139905 -18.705356 4.337982 -11.688002 1.512905 5.642073 10.631405 -3.736091 -1.170283 77.902235 -4.298268 26.927626 9.172819 -19.649727 37.296979 -34.655567 22.517332 42.820092 -5.815801 -0.118771 7.147093 -70.732339 23.429267 19.578715 13.951643 19.108585 14.007541 11.083518 0.854683 -8.980507 -10.937143 -2.686100 -6.629879 -0.180559 -55.026439 4.315390 18.344071 -19.502985 8.638238 -32.121898 56.054813 -18.483393 -14.048222 3.796600 3.534899 -4.414058 -4.503277 7.371469 10.098153 -7.416184 4.602871 -0.857041 0.283084 -0.652213 
-105.991341 126.186890 80.327515 2.562469 -7.528286 133.669357 -0.307277 -2.328671 1.352310 -0.070492 -0.870684 0.817067 -0.070492 -0.870683 0.817064 -0.051703 -0.653107 0.612688 -7.524746 -18.710885 4.636388 -12.296586 1.513932 6.064948 10.437769 -3.740424 -1.274768 79.135337 -3.460307 25.691538 11.396387 -19.610988 36.481857 -35.209270 24.794002 44.103078 -6.274364 0.334466 6.944232 -69.369648 23.984023 18.798216 13.222059 19.652449 13.315493 10.394710 2.215781 -9.840656 -11.320811 0.553787 -7.070987 -3.411176 -59.105978 8.230486 19.800946 -20.127413 7.460473 -29.599103 50.272504 -17.208943 -14.798517 2.777842 1.886297 -5.308141 -4.399183 7.958191 10.516983 -5.907554 4.666007 -0.550210 -0.190923 -0.393071 
-106.748711 124.790512 80.266090 1.775184 -7.447331 134.689841 -0.285395 -1.994979 1.103980 -0.170359 -0.848440 0.830746 -0.170358 -0.848439 0.830748 -0.126613 -0.636562 0.622809 -7.816708 -18.689194 4.905921 -12.744248 1.565857 6.463069 10.340083 -3.794179 -1.254948 80.205504 -2.592833 24.350929 13.070031 -19.409811 35.384188 -35.247854 26.786424 45.239242 -6.754080 0.715407 6.694965 -68.371539 24.447764 17.503546 12.492145 20.035552 12.581697 10.008271 3.595863 -10.821682 -11.172050 4.154448 -7.021495 -6.745686 -62.186277 11.741426 20.451617 -19.585738 6.065577 -16.485423 34.599887 -7.847734 -15.562364 2.254488 0.214080 -5.688357 -4.736980 8.986820 10.852086 -4.320282 4.589757 -0.430551 -0.481667 -0.357623 
-107.422157 123.430183 80.215752 1.149236 -7.354363 135.531539 -0.359482 -1.742152 1.135377 -0.233423 -0.828354 0.816644 -0.233422 -0.828354 0.816643 -0.173958 -0.621579 0.612152 -8.020329 -18.700979 5.156210 -13.036010 1.556471 6.856486 10.362466 -3.706398 -1.201060 80.873681 -1.969648 22.786527 14.558838 -18.666941 33.875037 -34.997910 28.564780 46.304950 -7.125884 0.583264 6.307354 -68.137817 24.936928 15.458255 11.742117 20.325395 11.755565 10.132359 4.947034 -11.974886 -10.662707 7.858627 -5.980615 -8.567143 -64.364773 13.503617 20.201078 -18.379433 4.607775 -14.851203 29.125883 -7.232456 -16.519659 1.731947 -1.369530 -5.551500 -4.990931 9.845034 11.187195 -3.166372 4.930288 -0.520751 -0.543415 -0.569423 
-108.019127 122.103165 80.162552 0.586885 -7.370065 136.467589 -0.552637 -1.554892 1.191278 -0.283655 -0.782463 0.776970 -0.283654 -0.782463 0.776968 -0.211743 -0.587210 0.582359 -8.141253 -18.805490 5.387839 -13.182320 1.375656 7.248351 10.443673 -3.694817 -1.149164 81.038501 -1.453015 21.142261 16.139892 -17.426575 31.924168 -34.766189 30.241229 47.242967 -7.394294 -0.033891 5.840000 -68.572319 25.304840 12.854495 10.883646 20.584942 10.799764 10.770719 6.112750 -13.346739 -10.021429 11.540814 -4.084033 -8.886882 -65.836473 13.513062 19.275477 -16.417237 3.505016 -13.293435 25.681672 -6.360723 -17.521103 1.005446 -2.568452 -5.293600 -5.146005 10.068302 11.452278 -2.259681 5.343142 -0.591094 -0.483645 -0.659658 
-108.577614 120.826691 80.107605 -0.031620 -7.484748 137.563002 -0.930099 -1.369061 1.240075 -0.336976 -0.709996 0.720770 -0.336976 -0.709996 0.720774 -0.251893 -0.532896 0.540179 -8.157601 -18.996945 5.581192 -13.150296 1.032694 7.609016 10.502782 -3.654670 -1.214589 80.869529 -1.006832 19.304570 17.642592 -15.925945 29.645784 -34.590076 31.756661 47.916328 -7.621302 -0.730741 5.337239 -69.220176 25.381955 10.121526 9.849279 20.861112 9.702612 11.681083 6.900222 -14.875268 -9.422734 15.147932 -1.463014 -7.871263 -66.674039 11.671764 17.803119 -14.009057 2.725361 -11.406766 24.473087 -5.068976 -18.429266 0.263967 -3.264014 -5.205703 -5.354278 9.605852 11.611177 -1.603013 5.473291 -0.512657 -0.235418 -0.464678 
-109.141304 119.661781 80.046486 -0.533023 -7.488326 138.836395 -1.220632 -1.170925 1.230687 -0.388476 -0.631503 0.657822 -0.388476 -0.631503 0.657824 -0.290675 -0.474047 0.492961 -8.082102 -19.241283 5.723200 -12.968182 0.589138 7.907635 10.502352 -3.493508 -1.318310 80.605931 -0.541965 17.205013 18.596588 -14.348767 27.177668 -34.278708 32.924988 48.201581 -7.914577 -1.005822 4.683376 -69.645069 25.175464 7.772700 8.630648 21.167091 8.451907 12.577441 7.177248 -16.425078 -8.675341 18.670676 1.699879 -5.018357 -66.853823 7.636636 15.907557 -11.843516 1.909978 -9.055663 24.760870 -3.559845 -19.108619 -0.441544 -3.523957 -5.039332 -5.733218 9.160064 11.676694 -0.695250 5.083513 -0.389557 -0.096743 -0.227070 
-109.746780 118.604729 79.982681 -0.780683 -7.296346 140.337848 -1.287279 -0.991576 1.082377 -0.434749 -0.557282 0.597356 -0.434750 -0.557282 0.597350 -0.325516 -0.418386 0.447609 -7.934818 -19.505285 5.811118 -12.673733 0.105801 8.130160 10.536923 -3.312603 -1.312141 80.315354 0.054715 14.982945 18.698507 -12.722721 24.533918 -33.686005 33.564144 48.085710 -8.250069 -1.181109 3.914925 -70.025046 24.863845 5.514535 7.244064 21.416591 6.937617 13.215267 6.924506 -17.781134 -7.587106 21.762253 4.891299 -2.048936 -65.810491 2.982861 13.895352 -10.214327 1.311730 -6.360579 25.413071 -2.136960 -19.464093 -1.246873 -3.521050 -4.682315 -6.086846 8.854451 11.701156 0.481912 4.310683 -0.322382 -0.176856 -0.108615 
-110.392174 117.611160 79.932655 -0.905418 -7.081361 141.897726 -1.336425 -0.837987 0.969037 -0.478014 -0.480847 0.540037 -0.478015 -0.480847 0.540039 -0.358085 -0.361058 0.404652 -7.742558 -19.780363 5.863340 -12.310089 -0.400649 8.300858 10.626121 -3.274265 -1.272633 80.070567 0.639974 12.795962 17.938003 -10.966679 21.688736 -32.672917 33.738187 47.698459 -8.457728 -1.655200 3.336434 -70.709957 24.292229 2.914569 5.718187 21.582250 5.143798 13.401128 6.250628 -18.722693 -6.368171 24.427661 7.990421 -0.140052 -63.679220 -1.044440 11.898823 -9.283224 1.039338 -3.500598 25.903829 -0.881549 -19.660869 -2.110091 -3.456383 -4.272638 -6.474111 8.438148 11.688865 1.674284 3.651349 -0.299182 -0.258787 -0.013933 
-111.061134 116.634125 79.902824 -0.858559 -6.952265 143.582843 -1.383518 -0.787574 0.820180 -0.517857 -0.408296 0.483668 -0.517856 -0.408295 0.483661 -0.388068 -0.306632 0.362400 -7.514016 -20.059717 5.890057 -11.889818 -0.917201 8.434969 10.790754 -3.328652 -1.249796 79.714093 1.082489 10.677854 16.644216 -8.938762 18.569020 -31.285084 33.591847 47.052521 -8.492582 -2.522138 3.045435 -71.784660 23.407593 -0.159905 4.145806 21.628595 3.121853 13.041083 5.286233 -19.118198 -5.135296 26.351838 10.872783 0.625549 -60.493148 -3.878510 10.181931 -8.754726 0.759404 -0.807258 25.722233 0.095459 -19.791108 -3.166499 -3.966743 -3.800922 -6.809625 8.023521 11.737116 2.645861 3.553148 -0.381268 -0.257280 -0.022640 
-111.739700 115.635651 79.889862 -0.719609 -6.922896 145.423784 -1.491612 -0.786890 0.634089 -0.554110 -0.346343 0.427735 -0.554111 -0.346344 0.427730 -0.415339 -0.260146 0.320492 -7.233271 -20.338521 5.884377 -11.385915 -1.435382 8.524244 11.025617 -3.365001 -1.255777 79.287117 1.526885 8.574730 14.861532 -6.896048 15.086402 -29.674402 33.149186 46.004637 -8.466406 -3.499627 2.790065 -72.941660 22.365478 -3.308010 2.564084 21.497375 0.911254 12.207190 4.171466 -18.996267 -4.125455 27.600948 13.162228 0.760244 -56.528937 -5.580390 8.539862 -8.415146 0.189996 1.607518 24.224171 0.791124 -19.870216 -4.428641 -5.070010 -3.320828 -7.099754 7.820188 11.801782 3.544860 3.658371 -0.492605 -0.238874 -0.042892 
-112.463394 114.579987 79.886818 -0.388279 -7.011559 147.221941 -1.557325 -0.891815 0.594438 -0.578811 -0.298913 0.376868 -0.578812 -0.298912 0.376866 -0.433924 -0.224541 0.282366 -6.893517 -20.630088 5.833781 -10.790014 -1.980537 8.548295 11.230848 -3.437990 -1.389690 78.889136 2.098061 6.608446 12.525046 -5.187322 11.162703 -27.864042 32.141122 44.199616 -8.593765 -4.290708 2.332914 -73.795392 21.312178 -6.111202 1.014538 21.127066 -1.396532 11.015959 3.054071 -18.510403 -3.291585 28.160195 14.639076 0.396435 -51.696298 -6.097090 6.889935 -8.436388 -0.458189 3.517334 21.022971 1.124074 -19.746985 -5.961802 -6.116450 -2.913544 -7.323900 7.772056 11.863795 4.481899 3.567009 -0.575356 -0.211160 -0.040856 
